PathFileType	4	(X/Y/Z)	C:\Users\Biomechanik\SynologyDrive\AlexP\Athlete_03\Athlete_3_25_03_31\Squat_35kg_02\marker_experimental.trc
DataRate	CameraRate	NumFrames	NumMarkers	Units	OrigDataRate	OrigDataStartFrame	OrigNumFrames
200.000000	200.000000	4	55	mm	200.000000	331	530
Frame#	Time	BL			BR			GLAB			RFHD			LFHD			C7			T6			SPINMOL			SPINM2			SPINM3			T12			BELTOL			BELT2			BELT3			SACROL			SACR2			SACR3			LTHOL			LTH2			LTH3			LSHAOL			LSHA2			LSHA3			LHEE			LTOE			LM5			RTHOL			RTH2			RTH3			RSHAOL			RSHA2			RSHA3			RHEE			RTOE			RM5			STRN			XIPH			LACR			LUAOL			LUA2			LUA3			LLAOL			LLA2			LLA3			LWRR			LWRU			RACR			RUAOL			RUA2			RUA3			RLAOL			RLA2			RLA3			RWRR			RWRU			
		X1	Y1	Z1	X2	Y2	Z2	X3	Y3	Z3	X4	Y4	Z4	X5	Y5	Z5	X6	Y6	Z6	X7	Y7	Z7	X8	Y8	Z8	X9	Y9	Z9	X10	Y10	Z10	X11	Y11	Z11	X12	Y12	Z12	X13	Y13	Z13	X14	Y14	Z14	X15	Y15	Z15	X16	Y16	Z16	X17	Y17	Z17	X18	Y18	Z18	X19	Y19	Z19	X20	Y20	Z20	X21	Y21	Z21	X22	Y22	Z22	X23	Y23	Z23	X24	Y24	Z24	X25	Y25	Z25	X26	Y26	Z26	X27	Y27	Z27	X28	Y28	Z28	X29	Y29	Z29	X30	Y30	Z30	X31	Y31	Z31	X32	Y32	Z32	X33	Y33	Z33	X34	Y34	Z34	X35	Y35	Z35	X36	Y36	Z36	X37	Y37	Z37	X38	Y38	Z38	X39	Y39	Z39	X40	Y40	Z40	X41	Y41	Z41	X42	Y42	Z42	X43	Y43	Z43	X44	Y44	Z44	X45	Y45	Z45	X46	Y46	Z46	X47	Y47	Z47	X48	Y48	Z48	X49	Y49	Z49	X50	Y50	Z50	X51	Y51	Z51	X52	Y52	Z52	X53	Y53	Z53	X54	Y54	Z54	X55	Y55	Z55	

332	1.655	232.7219543457031	844.2835693359376	-2219.762451171875	203.9544067382812	872.15576171875	-199.4123077392578	493.6511840820312	1046.632934570312	-1172.59814453125	440.0391540527344	1067.638061523438	-1110.394653320312	450.279296875	1067.3447265625	-1246.499877929688	266.3590393066406	924.2348022460939	-1185.069458007812	146.9728698730469	814.8485107421876	-1195.26806640625	129.1466522216797	795.5324096679689	-1214.301147460938	118.5742874145508	789.0126342773439	-1165.496215820312	89.18234252929688	743.6384277343751	-1204.276245117188	64.36396789550781	704.7028808593751	-1205.642456054688	29.57309913635254	699.8090209960939	-1221.066772460938	25.97041511535645	696.6563720703126	-1170.820190429688	-12.61969184875488	652.1369628906251	-1202.319580078125	-88.58888244628906	543.1496582031251	-1231.485717773438	-88.49501800537109	543.2626342773439	-1180.005126953125	-101.3199462890625	483.3078002929688	-1205.269287109375	114.2115783691406	411.8603515625001	-1494.4052734375	157.8340301513672	350.7963256835939	-1519.077514648438	166.5396270751953	399.9988098144532	-1524.411010742188	215.0009613037109	300.2454833984376	-1608.981323242188	152.3451232910156	258.5571899414064	-1582.225708007812	197.1784973144531	242.0215301513673	-1598.456909179688	78.91411590576172	70.65467834472665	-1487.681274414062	284.535400390625	49.6459503173829	-1546.900390625	215.4586639404297	23.43252372741709	-1635.219848632812	80.78758239746094	405.1415710449219	-902.21875	128.2688140869141	457.4530639648438	-864.4428100585938	132.1964416503906	407.9489440917969	-866.6707763671875	176.3198547363281	318.4796447753907	-778.9839477539062	183.3208618164062	239.8978118896485	-778.1636352539062	146.8966064453125	266.8702087402344	-798.4365844726562	56.76671600341797	66.40544128417974	-915.6812133789062	251.0766754150391	47.64139938354497	-832.9574584960938	168.3517913818359	34.98498916625982	-754.557861328125	379.2281188964844	764.2784423828126	-1188.078979492188	337.5057067871094	621.9351196289064	-1187.783203125	304.9051208496094	877.6610107421876	-1352.224243164062	183.4055786132812	785.0012207031251	-1448.9091796875	130.1587066650391	746.9602050781251	-1439.397216796875	157.4063873291016	733.6923828125001	-1480.352416992188	126.4470443725586	666.8281860351564	-1549.934448242188	199.6192932128906	656.8240966796876	-1580.9462890625	172.6781768798828	700.1269531250001	-1571.928833007812	233.2954254150391	778.5402832031251	-1603.225952148438	249.2985382080078	799.6812133789064	-1528.286987304688	306.0867004394531	873.8205566406251	-1029.596801757812	185.1033325195312	783.0052490234376	-945.3417358398438	149.7424468994141	735.8601684570312	-915.3011474609375	131.4612731933594	749.1295166015626	-962.5697631835938	128.3226623535156	665.8474731445312	-830.0634765625	141.6500396728516	743.8812866210938	-818.6072387695312	171.1951293945312	704.34033203125	-805.9453735351562	214.7286529541016	784.4171752929688	-784.3179931640625	245.60205078125	812.5951538085938	-853.283447265625	
333	1.66	232.7553863525391	848.2810668945314	-2219.568115234375	203.7712554931641	876.0458374023438	-199.2191162109374	493.4672546386719	1050.63818359375	-1172.426147460938	439.8565673828125	1071.643798828125	-1110.224609375	450.0816955566406	1071.332397460938	-1246.323974609375	266.1966247558594	928.1359863281251	-1184.8974609375	146.8855743408203	818.5833129882814	-1195.093872070312	129.0540313720703	799.2194824218751	-1214.134033203125	118.4309158325195	792.7112426757814	-1165.317016601562	89.19434356689453	747.2596435546876	-1204.110229492188	64.39691162109375	708.2034301757814	-1205.446044921875	29.59219360351562	703.3640136718751	-1220.887084960938	25.9588565826416	700.2251586914064	-1170.639526367188	-12.66296005249023	655.7672729492189	-1202.127075195312	-88.74977874755859	547.7382202148439	-1231.272094726562	-88.67060089111328	547.8553466796876	-1179.786010742188	-101.7417526245117	487.9493408203126	-1205.058959960938	113.4104385375977	414.4196166992189	-1494.116577148438	156.5136566162109	352.8908996582032	-1518.55908203125	165.6640014648438	402.0104980468751	-1524.036376953125	214.4082794189453	300.5881958007814	-1608.697509765625	151.8501586914062	258.6914367675782	-1582.032470703125	196.7356109619141	242.2880401611329	-1598.25146484375	78.84780883789062	70.64687347412118	-1487.76806640625	284.4868774414062	49.66119766235361	-1546.961669921875	215.4463348388672	23.39308547973643	-1635.25048828125	80.13015747070312	407.7803344726563	-902.1651000976562	128.1218109130859	459.4665527343751	-864.1771850585938	131.6375732421875	409.9463806152344	-866.7058715820312	175.8571624755859	318.7559814453126	-779.2163696289062	182.9489135742188	240.1842346191407	-778.2789916992188	146.4874572753906	267.0824279785157	-798.5823364257812	56.66507720947266	66.40998077392584	-915.5762329101562	251.0442810058594	47.66424179077153	-832.87744140625	168.3211059570312	34.92324447631841	-754.5025634765625	379.1641235351562	768.2267456054689	-1187.8720703125	337.4129333496094	625.8563842773439	-1187.611328125	304.8211364746094	881.5403442382814	-1352.025512695312	183.2797241210938	788.8863525390626	-1448.70166015625	130.0829315185547	750.8149414062501	-1439.171142578125	157.3273010253906	737.5615234375001	-1480.133666992188	126.4092025756836	670.6987915039064	-1549.723754882812	199.5435028076172	660.7072753906251	-1580.727416992188	172.6327667236328	703.9998168945314	-1571.729858398438	233.2176818847656	782.4446411132814	-1602.994995117188	249.2249755859375	803.5723266601564	-1528.06640625	305.9678039550781	877.7032470703126	-1029.389892578125	184.985107421875	786.8572387695314	-945.1832275390625	149.6228332519531	739.7086791992188	-915.1465454101562	131.3489990234375	752.9736328125001	-962.419677734375	128.2093353271484	669.697265625	-829.9046020507812	141.5146636962891	747.7407836914062	-818.4457397460938	171.0748443603516	708.1956176757812	-805.7778930664062	214.5932464599609	788.2769165039062	-784.1431274414062	245.4736480712891	816.4432983398438	-853.107177734375	
334	1.665	232.775390625	852.3803710937501	-2219.371826171875	203.5751647949219	880.0424194335938	-199.0239257812499	493.2771301269531	1054.745849609375	-1172.248901367188	439.6665954589844	1075.750854492188	-1110.05126953125	449.880859375	1075.42333984375	-1246.14404296875	266.0207214355469	932.1380615234376	-1184.728271484375	146.7886810302734	822.4155883789064	-1194.919921875	128.9531402587891	803.0051879882814	-1213.965942382812	118.2730941772461	796.5042724609376	-1165.143798828125	89.19883728027344	750.9757690429689	-1203.946044921875	64.41364288330078	711.7871093750001	-1205.252563476562	29.59690856933594	706.9989013671876	-1220.711791992188	25.93346214294434	703.8760986328126	-1170.462280273438	-12.72166633605957	659.4786376953126	-1201.939575195312	-88.88839721679688	552.3877563476564	-1231.055541992188	-88.82205200195312	552.5089721679689	-1179.563354492188	-102.1411437988281	492.6538085937501	-1204.846313476562	112.6228408813477	417.0188903808595	-1493.82470703125	155.1938934326172	355.025115966797	-1518.032470703125	164.7960357666016	404.057098388672	-1523.654541015625	213.8138885498047	300.9290466308595	-1608.414428710938	151.3538970947266	258.8256835937501	-1581.839111328125	196.2910766601562	242.5548553466798	-1598.044677734375	78.78221893310547	70.63830566406259	-1487.852661132812	284.4384155273438	49.67602157592783	-1547.022338867188	215.4348449707031	23.35441780090342	-1635.280029296875	79.48580169677734	410.4626770019532	-902.108642578125	127.9831085205078	461.5123291015626	-863.9043579101562	131.0846862792969	411.9812011718751	-866.7392578125	175.3855743408203	319.0366210937501	-779.4519653320312	182.5693511962891	240.4756164550782	-778.3967895507812	146.0712890625	267.2982177734376	-798.7327880859375	56.5653076171875	66.4160995483399	-915.4730834960938	251.010986328125	47.68508911132817	-832.80126953125	168.2908630371094	34.86251449584966	-754.4483032226562	379.0990905761719	772.2815551757814	-1187.663452148438	337.32373046875	629.8809204101564	-1187.437622070312	304.7256164550781	885.5250244140626	-1351.824584960938	183.1502838134766	792.8703613281251	-1448.49365234375	130.0049438476562	754.7658691406251	-1438.94677734375	157.2471618652344	741.5286865234376	-1479.916137695312	126.3751220703125	674.6653442382814	-1549.515747070312	199.4709167480469	664.6904296875001	-1580.51171875	172.5905456542969	707.9731445312501	-1571.527954101562	233.1371612548828	786.4533691406251	-1602.766479492188	249.1471557617188	807.5676879882814	-1527.846557617188	305.8391723632812	881.6890258789064	-1029.181030273438	184.8572845458984	790.8112792968751	-945.0252685546875	149.4948120117188	743.6576538085938	-914.9935913085938	131.2289123535156	756.9179077148439	-962.2702026367188	128.0858459472656	673.6484375	-829.7452392578125	141.3716430664062	751.7007446289062	-818.2823486328125	170.9444427490234	712.1517333984375	-805.6089477539062	214.4470367431641	792.2379150390625	-783.9656982421875	245.3349151611328	820.3956298828125	-852.9276123046875	
335	1.67	232.7816925048828	856.5794677734376	-2219.173583984375	203.3656463623047	884.1431274414062	-198.8267669677734	493.080322265625	1058.953857421875	-1172.06689453125	439.4689636230469	1079.95751953125	-1109.874145507812	449.6760864257812	1079.615356445312	-1245.96044921875	265.8318176269531	936.2380371093751	-1184.561157226562	146.6822204589844	826.3430175781251	-1194.74609375	128.8444976806641	806.8877563476564	-1213.796630859375	118.1020736694336	800.3898315429689	-1164.976928710938	89.19629669189453	754.7855224609376	-1203.783325195312	64.41460418701172	715.4530639648439	-1205.062744140625	29.58815574645996	710.7122192382814	-1220.540771484375	25.89531517028809	707.6078491210939	-1170.28857421875	-12.79662322998047	663.2700195312501	-1201.75830078125	-89.00563812255859	557.0948486328126	-1230.83544921875	-88.94985961914062	557.2194824218751	-1179.336791992188	-102.5181732177734	497.4175109863282	-1204.630981445312	111.8493270874023	419.6566467285157	-1493.52978515625	153.8761596679688	357.1975402832032	-1517.496459960938	163.936279296875	406.1370849609376	-1523.265747070312	213.2177276611328	301.2679748535157	-1608.131713867188	150.8564453125	258.9600524902345	-1581.645263671875	195.8448638916016	242.8219299316407	-1597.836303710938	78.7171630859375	70.6288375854493	-1487.935302734375	284.3902282714844	49.6914939880372	-1547.082885742188	215.4241485595703	23.31663131713877	-1635.308715820312	78.85411071777344	413.1855773925782	-902.0501708984375	127.850700378418	463.5875854492188	-863.6246337890625	130.5364837646484	414.0509643554688	-866.7714233398438	174.9040985107422	319.3211669921876	-779.689697265625	182.1812133789062	240.7715148925782	-778.516357421875	145.6471862792969	267.5173950195313	-798.8870849609375	56.46719360351562	66.42353057861334	-915.3714599609375	250.9766235351562	47.70383453369146	-832.729248046875	168.2609252929688	34.8030281066895	-754.3950805664062	379.0329284667969	776.4401245117189	-1187.453735351562	337.2383728027344	634.0063476562501	-1187.26318359375	304.618408203125	889.6128540039064	-1351.621459960938	183.0181579589844	796.9507446289064	-1448.284423828125	129.9241943359375	758.8099365234376	-1438.723876953125	157.166015625	745.5919189453126	-1479.699951171875	126.3437271118164	678.7260742187501	-1549.31103515625	199.40283203125	668.7719116210939	-1580.30029296875	172.5545043945312	712.0437011718751	-1571.322021484375	233.0537109375	790.5640869140626	-1602.540405273438	249.0647277832031	811.6649780273439	-1527.62744140625	305.7009582519531	885.7749023437501	-1028.969848632812	184.7200927734375	794.8643188476564	-944.8683471679688	149.3584289550781	747.7041015625	-914.842529296875	131.1012573242188	760.9591064453126	-962.1220703125	127.9517440795898	677.6981201171875	-829.5859985351562	141.2205657958984	755.7586059570312	-818.1177978515625	170.8031921386719	716.2060546875	-805.438720703125	214.2894439697266	796.29736328125	-783.7859497070312	245.1851196289062	824.4494018554688	-852.7452392578125	
